<?xml version="1.0" encoding="utf-8"?>
<!-- Generator: Adobe Illustrator 21.0.0, SVG Export Plug-In . SVG Version: 6.00 Build 0)
https://c.runoob.com/more/svgeditor/ -->
<svg width="800" height="600" xmlns="http://www.w3.org/2000/svg">
	<g>
		<title>Layer 1</title>
		<path stroke="#000" fill="#A0D58A" d="m110.65897,161.12607c-2.8459,0 -4.3087,-2.34634 -4.3087,-5.16c0,-2.34578 0.73129,-4.62328 2.8459,-4.62328c1.46279,0 3.66484,2.27749 4.39612,4.62328c1.46279,3.41542 0,5.16 -2.93334,5.16l0.00002,0zm486.47737,133.87868c6.51096,0 7.97354,0.60175 4.3087,4.62273c-2.11463,2.81367 -6.51073,5.15946 -8.62536,5.15946c-2.20182,0 -4.39612,-2.34578 -4.39612,-5.15946c0,-2.8827 2.93355,-4.62273 8.71278,-4.62273zm-454.56752,-163.76379c-6.51073,-1.13847 -7.24225,-6.90349 0,-8.64408c3.66462,-0.536 5.77946,1.13829 5.77946,4.62328c0,2.88232 -2.11484,4.55734 -5.77946,4.02079zm-81.15784,182.12159c8.71278,-1.6752 8.71278,-2.87924 5.77946,-6.83466c-2.19431,-2.87924 -2.92558,-6.36387 -1.46279,-7.50252c0.73129,-1.74367 4.39612,0 6.51073,3.41578c2.93334,4.62328 5.12741,5.22866 10.90686,2.34578c3.58539,-1.7404 6.51073,-2.88196 6.51073,-1.13829c0,1.13829 2.20205,0 5.04795,-2.34578c4.39634,-3.41578 5.12763,-10.92138 0.7315,-14.94255c-3.57742,-3.41578 -21.73427,-2.27713 -26.78221,1.7404c-2.92558,2.88288 -5.12763,2.28077 -7.97354,-2.8787c-4.39612,-8.57887 -4.39612,-9.78327 5.77923,-10.31927c8.71278,0 8.71278,0 1.46279,-3.48463c-3.65686,-1.6752 -7.24202,-5.15946 -7.24202,-7.43695c0,-5.76466 10.09589,-9.18044 14.49201,-5.15927c1.46279,1.67483 4.30892,3.41578 7.24225,3.41578c5.77946,0 33.37241,-19.49717 33.37241,-23.51834c0,-1.74349 2.85387,-2.88178 5.77946,-1.74349c3.58516,0.6052 10.09612,-1.13829 16.69429,-4.02117c9.35665,-4.62292 9.35665,-5.15946 4.3087,-12.66197c-3.57742,-5.15946 -7.97354,-6.90349 -18.14911,-6.90349c-11.5587,0 -14.49201,1.13883 -18.06943,8.04233c-1.47076,4.62273 -5.86665,8.0387 -8.71278,8.0387c-5.04795,0 -6.51073,-5.15636 -1.46279,-8.0387c2.19408,-1.13883 3.65686,-5.15946 3.65686,-9.18062c0,-6.29848 -1.46279,-7.43695 -10.90686,-5.76157c-9.44407,1.13829 -9.44407,0.60175 -7.24225,-8.04269c1.46279,-5.15927 3.57742,-9.78219 5.04818,-10.31873c1.46279,-0.60175 2.92536,-5.76157 2.92536,-10.92102c0,-10.31981 4.31666,-12.06022 12.29817,-4.62328c3.65665,4.02099 5.85891,4.62328 7.24202,1.13829c1.46279,-2.27713 6.5902,-2.81367 14.57169,-1.67538c10.82741,2.27749 11.5587,1.67538 10.09589,-5.15946c-0.73129,-4.02061 -1.47055,-8.6439 -2.20182,-9.78219c0,-1.74095 -3.57742,-4.02117 -7.89407,-5.76212c-8.71278,-2.88178 -10.90686,-9.78219 -2.93334,-9.78219c2.20205,0 4.31644,-1.13883 4.31644,-3.41942c0,-1.74095 4.39634,-2.87924 10.17557,-2.34616c7.98149,0.6052 12.2902,-1.67447 23.19705,-13.73415c7.98149,-8.64444 13.76074,-13.26736 14.49224,-10.92156c0.73129,2.87924 4.39612,4.55407 7.98128,4.55407c5.77946,0 6.51096,-1.67483 4.39634,-9.17735c-0.73926,-5.15982 -4.39634,-11.45756 -6.59817,-14.34044c-6.51096,-6.36641 -6.51096,-13.80336 0,-11.52677c5.12741,2.28077 21.08221,-4.01753 21.08221,-8.03852c0,-1.74367 2.12258,-2.88232 5.04795,-2.88232c2.93355,0 4.31666,3.48443 4.31666,8.04215c0,5.76157 1.46279,8.03906 5.12763,6.36369c2.8459,-1.20422 5.04818,-4.62328 5.04818,-6.90023c0,-6.90385 23.19684,-18.96373 28.97607,-15.54485c2.20226,1.1392 4.39612,0 5.13583,-4.02061c2.1144,-8.04215 15.21533,-14.34044 20.99458,-10.31927c2.93355,1.67483 5.77968,1.13883 6.51894,-0.60175c1.46258,-2.28059 7.24202,-4.02117 13.75277,-4.55807c6.51073,-0.60175 15.22353,-2.88232 18.88837,-5.22812c13.75277,-7.43695 27.51373,-6.90041 33.29296,1.14229c3.66484,5.7612 5.12741,5.7612 5.12741,1.74004c0,-5.15982 2.8541,-5.76157 20.27169,-4.02061c27.59318,2.28059 31.90985,2.28059 42.08542,-0.60229c6.51073,-1.6752 8.71257,-1.13865 8.71257,3.48407c0,2.88288 2.11484,5.16 5.04818,5.16c2.19408,0 4.3087,-1.67538 4.3087,-3.41906c0,-4.62273 11.64633,-6.90023 21.8217,-4.62273c7.89407,2.28059 8.62536,2.88178 6.51073,18.36088c-0.73129,9.24619 0,15.54449 1.38334,15.54449c1.46258,0 2.93334,-4.02117 2.93334,-9.78273c0,-9.71716 7.97354,-13.73505 10.90686,-5.76176c0.7315,2.87942 2.8459,1.74058 4.3087,-2.81349c3.66507,-12.06332 11.64633,-5.7652 9.44407,7.43695c-2.19386,10.92102 -2.19386,10.92102 4.31689,6.89987c3.66462,-1.74058 6.51052,-6.29774 6.51052,-9.17735c0,-2.88252 2.20226,-6.30138 5.12786,-7.50578c5.77902,-2.27659 12.29794,6.36423 10.17536,12.66507c-0.73129,2.87978 -0.73129,5.15982 1.38311,5.15982c1.47076,0 2.93355,-1.67483 2.93355,-2.88232c0,-1.6752 3.58516,-2.27749 7.98128,-1.13829c9.43633,1.74058 10.81944,6.36332 2.84613,9.17699c-2.11463,1.20749 -4.31666,4.02117 -4.31666,6.36731c0,4.02117 1.47055,4.02117 9.44407,0c13.02148,-6.90023 18.80072,-6.36731 21.00298,1.13829c1.46258,4.02117 4.31644,5.76484 7.24202,4.02117c2.93334,-0.60211 9.44407,1.74367 14.49224,5.76157c4.39612,3.41886 10.90686,6.2983 13.84019,6.2983c4.31666,0 4.31666,2.8827 2.8459,10.92448c-1.46258,8.64444 -1.46258,9.78273 2.93355,6.29866c5.77923,-5.69655 7.97354,-5.16037 10.09612,2.8787c0.73129,4.02117 5.8587,6.90349 11.63815,8.64408c6.51073,1.14229 10.09612,4.02099 10.09612,7.44003c0,3.48443 2.19386,7.50252 4.39612,9.78309c5.77946,4.02061 4.3087,16.08049 -2.20226,20.10146c-2.19386,1.2044 -5.04773,0.60229 -5.77923,-1.13829c-1.46258,-1.74403 -6.51073,-1.74403 -15.95503,0c-15.22353,4.01753 -18.06943,5.15946 -14.49201,10.38448c2.20205,3.41578 27.52147,2.27749 41.35392,-1.74367c4.31666,-1.74076 5.77946,0 5.77946,8.04233c0,5.7612 -1.46279,10.31927 -3.65686,10.31927c-1.47076,0 -2.85387,1.7404 -2.85387,4.62273c0,6.90313 3.58539,6.29774 13.02946,-1.74095c5.03997,-4.62273 7.97331,-5.76466 11.5587,-2.88178c3.65686,2.88178 4.39612,2.88178 4.39612,-1.74095c0,-2.81713 -1.47076,-5.15946 -3.66462,-5.15946c-1.38334,0 -2.8541,-2.28059 -2.8541,-4.55807c0,-2.88196 2.12258,-5.15946 5.04795,-5.15946c2.20205,0 5.12763,1.13829 5.12763,2.81367c0,1.74441 2.85387,4.02099 6.51871,4.62328c5.0402,1.74403 6.51073,4.02117 5.77923,10.92138c-1.47055,13.20125 1.46302,17.22276 12.2902,14.94564c5.12763,-1.14229 7.97331,0 5.77946,2.27713c-0.65182,1.13829 0,4.02117 1.46279,5.22466c5.86665,3.41924 3.66462,11.45848 -2.84613,11.45848c-7.98128,0 -10.17557,2.88178 -5.8587,8.04178c2.92536,2.88232 5.12741,3.41578 7.97331,1.13865c6.59817,-5.76157 7.98149,-1.13865 8.71278,21.84605c0,11.52277 1.46279,20.70375 2.92558,20.70375c3.58516,0 2.20205,12.66507 -2.92558,17.82452c-2.85387,2.87924 -2.85387,5.69273 -0.73129,8.03852c5.12741,5.16 0,20.10256 -6.51894,20.10256c-5.77902,0 -16.68609,10.92102 -16.68609,16.08085c0,6.30174 -9.35665,0 -11.5587,-6.90041c-2.19408,-6.29812 -2.19408,-6.29812 -3.66484,-1.74367c-1.38311,5.2283 6.51871,21.30914 13.10914,25.8663c4.31644,3.48499 -3.66484,9.24619 -9.4443,6.90041c-2.93355,-1.13829 -4.31666,-4.55407 -4.31666,-8.0387c0,-9.78219 -18.14911,-34.44227 -31.90985,-43.68809c-7.32149,-4.55807 -13.83245,-9.71752 -13.83245,-11.45793c0,-3.48463 -23.20481,-14.34044 -36.2263,-17.82488c-7.25022,-1.74367 -9.4443,-1.13847 -9.4443,3.48443c0,3.41578 -1.38311,4.55407 -4.31666,3.41578c-6.51073,-2.27749 -9.44407,2.88288 -3.66462,8.04233c7.98128,6.29812 6.59817,13.80336 -2.11463,10.92102c-5.85891,-1.74058 -6.59041,-1.13883 -4.39612,8.64426c0.73129,5.69601 2.20205,13.20125 2.20205,16.61703c0,3.48463 1.46258,5.76212 2.92536,5.76212c2.12281,0 2.85387,-1.13883 1.38334,-2.87924c-0.73129,-1.74403 0.73947,-3.41906 3.66462,-3.41906c2.20226,0 4.31666,2.28021 4.31666,4.55734c0,2.34616 -2.85366,4.62273 -7.98128,4.02153c-4.3087,0 -7.97354,-1.67538 -7.97354,-2.81403c0,-5.22866 -19.54019,-40.80922 -25.31942,-46.03425c-6.51096,-5.69655 -2.19431,-7.43695 -53.64433,19.56528c-7.97331,4.02117 -16.68609,12.66507 -21.08221,18.96373c-3.58539,6.29774 -9.36462,12.66507 -12.2902,13.80336c-2.93334,1.13883 -13.76074,10.31927 -23.20503,20.102c-40.62263,43.08272 -34.02446,48.24254 -31.17833,136.22484c12.29794,66.66935 12.29794,66.66935 12.29794,66.66935c-28.98426,0 -28.98426,0 -28.98426,0c-23.92834,0 -23.92834,0 -23.92834,0c2.19408,-61.51334 2.19408,-61.51334 2.19408,-61.51334c1.46258,-5.156 2.20205,-15.54394 2.93355,-21.30606c0.73129,-3.41886 -20.35116,-18.36142 -19.61966,-21.77684c0,-2.88232 21.81373,5.16 21.81373,2.27713c3.58516,-41.94442 0,-75.31379 -9.4443,-93.07291c-2.19408,-10.92156 -20.35094,-46.03079 -23.19684,-46.03079c-0.7315,0 -5.85891,-3.41886 -10.90686,-7.44003c-8.71301,-7.50216 -12.2902,-8.03906 -60.89432,-10.31927c-52.18133,-2.3427 -52.18133,-2.3427 -52.18133,-2.3427c-12.36966,8.03906 -12.36966,8.03906 -12.36966,8.03906c-7.24202,5.22812 -14.49201,8.64408 -16.60685,8.64408c-4.39612,0 -22.55297,12.06278 -30.44705,18.96263c-0.73129,0 -1.46258,-0.60121 -1.46258,-1.13829c-0.7315,0 -0.7315,0 -0.7315,-0.60211c-0.73129,-1.67483 -1.47055,-3.41886 -2.93334,-5.15946c4.39612,-2.88232 7.98128,-4.626 9.44407,-4.02061c2.19408,1.13829 4.31666,0 4.31666,-2.88288c0,-2.87924 -4.31666,-4.02099 -15.87535,-2.87924c-13.84042,1.74095 -17.42558,2.3427 -19.61966,9.17754c-3.58539,3.48443 -4.31666,8.64426 -2.19408,12.66543c-0.73947,5.15946 -0.73947,8.6439 0,8.6439c0.73129,0 1.46258,-1.13829 3.65686,-2.34578c0,0.60229 0.73129,1.20749 1.47055,1.74367c-7.24999,1.74058 -10.91483,6.90041 -10.17557,12.05986c-3.66462,2.34578 -7.24999,3.48443 -11.6459,5.22503c0,0 0,-0.60175 -0.65205,-0.60175c2.85387,-5.15946 4.31666,-10.92156 5.04795,-19.56546c1.47076,-9.71752 0.73129,-16.08085 -1.46258,-16.08085c-1.46279,0 -2.93334,2.34578 -2.93334,5.76102c0.73106,2.88288 -0.65205,5.76212 -3.57763,6.29866c-2.20205,0.60175 -3.66462,-0.53654 -3.66462,-3.41578c0,-6.90349 -2.84613,-6.90349 -9.36483,-0.6052c-2.92536,2.34578 -8.70483,5.15982 -13.75277,6.36731c-6.59817,1.67483 -8.71278,0.536 -11.64612,-5.76212c-2.19408,-5.15946 -3.65686,-10.92448 -2.19408,-13.20161c0.73129,-2.88232 0.73129,-5.22503 -2.11463,-5.22503c-7.98149,0 -2.20205,-9.18098 7.24202,-10.92466l0.00005,0zm62.3569,-132.13502c-4.39612,-0.60175 -7.98149,-2.27713 -9.44407,-4.62292c-0.7315,-3.41886 -1.46279,-3.41886 -1.46279,0c0,2.34578 -2.93334,4.02117 -5.77946,4.62292c-5.12741,0 -5.12741,0.60211 0.7315,2.88288c3.57718,1.13829 7.24202,2.8787 7.97331,2.8787c0.65182,0 4.31666,-1.7404 7.98149,-2.8787c6.51073,-2.88288 6.51073,-2.88288 0,-2.88288l0.00002,0zm574.87722,92.53637c1.38334,1.13883 2.84613,-0.6052 2.84613,-3.48443c0,-2.28021 -1.46279,-4.55771 -2.84613,-4.55771c-2.20182,0 -3.66462,1.13865 -3.66462,2.81367c0,1.74403 1.46279,4.08982 3.66462,5.22848zm-5.12741,5.15982c-0.73129,-1.74403 -4.31666,-4.02099 -7.24999,-4.02099c-2.11463,0 -3.57742,2.27695 -2.11463,4.02099c0.65182,1.74058 3.58516,2.87942 6.51073,2.87942c2.85387,0 3.58516,-1.13883 2.85387,-2.87942l0.00002,0zm-6.51073,25.86322c2.19408,0 5.12741,-0.60175 5.12741,-1.13829c0,-1.20749 -2.93334,-2.34578 -5.12741,-3.48463c-2.85387,-1.13865 -5.04818,-0.53654 -5.04818,1.13883c0,1.74367 2.19431,3.48407 5.04818,3.48407l0,0.00002zm5.77946,-54.60912c2.92536,-1.1392 4.39589,-2.8827 3.65686,-4.55807c-2.19431,-4.08618 -14.4845,-4.08618 -14.4845,0c0,4.55807 4.30892,6.29866 10.82762,4.55807l0.00002,0zm-39.81167,-43.08672c-3.66484,1.74403 -5.85891,5.15982 -5.12786,6.90349c3.66484,4.55461 7.98172,3.41578 11.63838,-4.02117c3.58539,-6.90349 2.12258,-8.04178 -6.51052,-2.88232zm-13.84042,88.5154c18.88814,15.47856 19.61966,16.08085 19.61966,10.92138c0,-2.87924 -1.46279,-5.22503 -3.66484,-5.22503c-2.1144,0 -5.77923,-2.88288 -7.97331,-6.29812c-2.11484,-3.41942 -6.51073,-6.90403 -10.09612,-6.90403c-6.5902,0 -6.5902,0.60538 2.11463,7.50578l-0.00002,0.00002zm-15.21577,-27.07108c4.38838,0 6.51096,-1.13829 3.6571,-1.67502c-2.19408,-1.13865 -5.77946,-1.13865 -7.97354,0c-2.20226,0.53672 0,1.67502 4.31644,1.67502zm-21.00276,-78.12745c2.19408,1.74095 8.70483,4.01807 14.48406,5.16c10.1758,1.7404 10.90709,1.7404 5.12763,-2.88232c-6.5902,-5.69655 -24.65963,-7.43695 -19.61168,-2.27767l0,-0.00002zm-44.20802,-95.3495c-2.19408,1.67483 -2.92536,5.15946 -2.19408,7.43641c1.46279,4.62328 5.77946,0.60229 5.77946,-6.29812c0,-3.48463 -0.7315,-4.02117 -3.58539,-1.13829zm21.73427,124.09595c5.77946,2.87888 7.98149,2.87888 10.91506,-1.14192c5.77923,-6.29848 2.1144,-9.17735 -8.71301,-5.15927c-8.71278,2.81675 -8.71278,2.81675 -2.20205,6.3012l0,-0.00002zm-14.48406,-28.74646c10.90686,-6.29756 10.90686,-6.29756 2.19408,-6.29756c-5.85891,0 -10.17557,2.27659 -12.36966,6.29756c-1.38334,4.01807 -2.85387,6.29866 -2.12258,6.29866c0,0 5.77946,-3.41924 12.29817,-6.29866zm-15.95503,93.13868c5.03997,6.29866 13.75299,6.29866 10.90686,-0.60211c-0.73129,-2.28021 -1.47055,-5.15946 -1.47055,-5.76484c0,-0.53654 -2.92558,-0.53654 -6.51073,0.60538c-5.85891,1.13865 -5.85891,2.87924 -2.92558,5.76157zm-22.47352,-23.58645c5.77923,6.29848 8.71278,6.90023 15.22353,2.27749c4.31666,-2.87924 4.31666,-2.87924 0,-3.41578c-2.19408,0 -7.97354,-0.60538 -13.02148,-1.74403c-7.24999,-2.27713 -7.24999,-2.27713 -2.20205,2.88232zm-0.73129,-62.65182c3.66462,0 7.98128,-9.18044 5.77946,-12.05968c-2.84613,-2.88232 -8.70504,1.7404 -8.70504,6.90023c0,2.88252 1.46279,5.15946 2.92558,5.15946l0,-0.00002zm-35.48725,39.06519c-4.39612,2.34578 -3.66462,2.88288 2.11484,2.88288c3.66462,0 7.97331,-1.14229 9.44407,-2.88288c2.19386,-4.55716 -5.04818,-4.55716 -11.55891,0zm0.7315,50.58886c0.65182,0.60538 2.8459,-0.60211 5.04795,-3.41578c2.19386,-2.34578 8.70504,-5.22812 13.75277,-6.36695c6.51073,-1.74095 9.4443,-4.55443 9.4443,-8.64426c0,-9.71354 -10.17557,-6.83484 -21.00321,5.76502c-4.39589,6.36387 -7.97331,11.52368 -7.24181,12.66197zm-7.98128,-26.46569c6.51052,-6.29774 6.51052,-7.44003 1.3829,-9.18062c-5.77923,-2.27749 -10.08794,2.88288 -10.08794,12.05986c-0.73926,6.90349 -0.73926,6.90349 8.70504,-2.87924zm-11.63838,-67.81109c0.73129,4.62273 2.19408,4.02099 6.51052,-4.55771c5.12786,-9.17754 5.12786,-10.38502 0.7315,-10.38502c-2.8459,0 -5.77946,1.74095 -6.51073,4.62346c-1.46279,2.27695 -1.46279,7.5056 -0.73129,10.31927zm-3.58539,-47.10443c0,2.3427 1.38311,8.03906 2.85387,12.05986c2.19408,8.04215 2.19408,8.04215 4.39612,1.13865c2.8459,-6.89987 0,-17.21914 -4.39612,-17.21914c-2.12258,0 -2.85387,1.74004 -2.85387,4.02061l0,0.00002zm-50.79025,18.96009c-3.58516,4.02117 -3.58516,8.04233 -0.73926,20.102c1.47076,8.64408 5.1356,17.28833 7.24999,18.96373c3.66484,2.88232 4.39612,0 5.12741,-17.82179c0,-21.77739 -3.66462,-28.68034 -11.63815,-21.24394zm6.51073,60.91123c0.7315,1.13883 2.19408,-1.13865 1.46279,-4.55753c0,-3.48463 -0.73129,-4.02117 -2.19408,-1.74058c-0.65205,2.27713 -0.65205,5.15946 0.73129,6.29812zm26.13039,-54.00774c-0.73129,1.13883 -0.73129,9.18098 1.46279,17.82179c2.20205,14.94564 2.85387,15.54739 3.58539,4.626c0.73129,-17.82488 -0.7315,-26.46877 -5.04818,-22.4478zm-24.6676,162.0886c4.39612,-6.90349 11.63838,-18.42717 16.68632,-25.33012c5.77923,-7.43749 9.44407,-17.21968 10.90686,-27.00241c2.12258,-15.4791 2.12258,-15.4791 2.12258,-15.4791c-8.71278,8.57869 -8.71278,8.57869 -8.71278,8.57869c-4.31666,4.62328 -7.24225,9.78273 -7.24225,11.52368c0,4.55734 -13.76074,33.30325 -18.0774,38.46308c-2.19408,2.8787 -5.85891,9.24619 -6.51073,13.80336c-3.66484,13.19889 2.85387,10.92138 10.82741,-4.55716l0,-0.00002zm-51.45004,59.16719c2.20205,11.45756 2.20205,11.45756 9.4443,-13.20179c4.31666,-13.26754 10.82741,-34.50747 15.22353,-47.70944c5.77923,-16.68314 7.98128,-30.4865 7.98128,-49.98621c0,-25.32758 -0.73926,-25.86412 -6.51849,-22.98126c-13.10116,7.43677 -20.35116,28.14052 -23.27673,68.344c-1.38311,20.70775 -2.85387,41.41151 -4.31644,45.96922c-0.7315,4.62292 0,13.26718 1.46258,19.56546l-0.00002,0.00002zm1.47076,-147.08083c2.8459,5.69637 5.77946,10.31927 5.77946,10.31927c0.73129,0 4.30847,-3.48463 7.24202,-8.04178c3.66462,-4.01789 9.44407,-8.64081 11.63838,-10.31619c8.6331,-5.22812 10.82718,-21.30896 3.58516,-32.23035c-5.77946,-9.78273 -21.73427,-20.70739 -24.66781,-17.22276c-1.46258,1.13865 -3.57718,12.06332 -5.04795,24.72528c-2.92536,18.96317 -2.92536,24.72783 1.47076,32.76653l-0.00002,0zm-4.39612,-131.6012c1.46279,1.14192 2.92536,0.53654 2.92536,-1.20386c0,-2.28059 -1.46258,-4.55807 -2.92536,-5.69655c-2.20205,-1.20731 -3.58539,-0.60211 -3.58539,1.67538c0,1.74058 1.38334,4.02117 3.58539,5.22503zm-234.8559,154.51688c10.09589,0.6052 10.09589,0.6052 10.09589,0.6052c10.17557,0 20.35116,-7.44003 20.35116,-13.80336c0,-4.02117 -0.73129,-4.02117 -30.44705,13.19815l0,0.00002zm4.31666,-16.08103c0,1.74459 1.46279,3.48463 3.66484,3.48463c3.57742,0 13.75277,-10.31927 11.5587,-12.05968c-2.20205,-2.34578 -15.22353,5.15927 -15.22353,8.57506l0,-0.00002zm7.98128,-39.60119c10.90709,11.46065 15.95503,12.59932 21.73427,5.15927c5.85891,-6.89987 0.7315,-11.52313 -16.69406,-13.19851c-14.48427,-1.74403 -14.48427,-1.74403 -5.0402,8.03924zm-7.98128,-32.22744c0,1.20386 5.12741,4.01753 10.90686,6.36332c26.78244,10.92156 31.90985,10.92156 31.17833,0.53708c0,-6.29866 -10.90686,-20.10238 -15.22353,-20.10238c-5.12741,0 -26.86168,10.92138 -26.86168,13.20197l0.00002,0zm39.15984,81.6119c7.97354,0 8.70483,-1.74095 2.19408,-4.55461c-2.93334,-0.6052 -5.77946,0 -6.51073,1.67538c-1.47076,1.74004 0.73129,2.87924 4.31666,2.87924zm5.77946,-135.01752c-5.04818,-2.8827 -11.56688,-4.02099 -14.49224,-2.8827c-5.04795,2.28059 -4.31666,2.8827 2.92536,4.62273c3.58539,1.14229 10.91506,2.28077 14.49224,2.81731c4.31666,0 4.31666,-1.14192 -2.92536,-4.55734zm-0.65182,20.70375c4.30847,0 5.04795,-0.60211 2.11463,-2.3427c-2.11463,-0.53618 -5.04818,-0.53618 -6.51096,0.60229c-0.73129,1.13829 1.46279,2.27749 4.39634,1.7404zm4.30847,13.20215c-10.17536,0 -10.17536,0.536 -4.30847,5.15927c7.24202,5.15946 9.35665,5.7612 12.2902,2.27713c5.04773,-4.55461 1.46258,-7.43641 -7.98172,-7.43641l0,0.00002zm14.49246,-64.92931c-2.93355,-2.88232 -3.66484,2.27749 -2.19431,8.5756c0.73129,4.02117 3.65686,7.50524 5.12763,7.50524c2.8459,0 0.73129,-12.66507 -2.93334,-16.08085l0.00002,0zm23.19684,75.84979c-1.46258,0.53708 2.20205,4.02117 6.51871,6.90385c4.39612,2.87924 7.97331,4.01771 7.97331,2.27713c0,-4.02061 -12.28998,-11.52622 -14.49201,-9.18098zm-18.14911,4.02117c-6.51073,4.02153 -2.8459,14.34026 6.59041,16.08121c5.04795,1.13847 13.02946,5.76176 18.0774,10.31891c4.39612,4.62328 7.97331,6.36731 7.97331,4.62328c0,-5.76157 -28.97629,-33.36918 -32.64114,-31.0234l0.00002,0zm29.71578,47.70999c-4.31644,-9.24965 -9.36462,-13.80426 -18.8089,-16.68658c-7.24202,-2.27713 -14.49201,-3.48407 -16.68609,-2.87888c-2.20205,0.60175 6.51073,8.0387 18.88837,16.68278c23.19684,14.94255 23.19684,14.94255 16.60664,2.8827l-0.00002,-0.00002zm38.50005,-88.51576c-1.46279,0 -2.93355,2.27749 -2.93355,4.55461c0,2.88232 1.47076,4.62328 2.93355,4.62328c2.11463,0 3.58539,-1.74095 3.58539,-4.62328c0,-2.27713 -1.47076,-4.55461 -3.58539,-4.55461zm-6.5902,47.10443c0,4.02061 12.36966,1.13865 17.41761,-4.02117c7.24225,-8.6439 6.51073,-10.92138 -2.93334,-10.92138c-6.51073,0 -14.48427,8.04251 -14.48427,14.94255zm21.08244,-124.09649c-2.20205,7.43695 -3.66484,13.73505 -2.93334,14.34044c2.20182,2.27749 7.98149,-14.94219 7.98149,-21.84569c0,-2.87924 -2.20226,0.60538 -5.04818,7.50524l0.00002,0zm37.6893,116.05417c-3.66484,0 -6.51096,1.14229 -6.51096,3.41886c0,1.74095 2.11463,2.88288 4.3087,2.88288c2.93334,0 5.77946,-1.14192 6.51871,-2.88288c1.46279,-2.27659 -0.73926,-3.41886 -4.31644,-3.41886zm-8.71301,108.01511c4.31666,10.38812 10.82741,20.102 14.49224,22.4478c3.66484,1.74095 10.90686,9.78309 15.22353,17.82488c4.31666,8.03906 8.71278,14.33736 9.4443,14.33736c3.57718,0 -3.66484,-52.86599 -8.71278,-68.94992c-4.39634,-13.80026 -5.77968,-26.46569 -5.04818,-46.56771c0.65182,-14.94219 0,-28.14416 -1.46258,-29.28264c-0.7315,-1.13865 -5.77946,-1.13865 -10.17557,0c-7.98149,2.27713 -8.71278,4.02117 -8.71278,16.68622c0,9.71408 -1.46302,14.94255 -5.04818,17.21914c-10.17536,5.16 -9.44407,34.44245 0,56.28487l-0.00002,0zm-21.00276,-76.98844c-1.46279,-8.64408 -2.92536,-9.78273 -10.90686,-9.78273c-9.4443,0 -9.4443,0.60211 -8.71278,12.66197c0,7.44003 1.47055,16.08393 2.20182,20.10182c0.7315,4.02117 3.58539,8.04178 6.51096,8.64408c5.77923,2.8827 12.28998,-17.21914 10.90686,-31.62515l0,0.00002zm-10.90686,58.02527c-6.51096,-6.90041 -10.90686,-14.33736 -11.55891,-16.08085c0,-2.27713 -3.66462,-8.0387 -7.97354,-13.19851c-4.39612,-5.15946 -9.44407,-11.52641 -11.64612,-13.8039c-7.24202,-8.04178 -5.77946,-1.13829 2.20205,16.68314c5.04795,12.06278 13.75299,22.98434 23.92834,32.16478c18.80869,15.5443 21.00298,12.66252 5.04818,-5.76466zm-11.55891,28.20936c7.89407,0 7.24225,-0.60175 -3.66462,-9.78219c-7.24225,-5.76212 -12.2902,-12.06022 -12.2902,-14.94274c0,-2.27695 -9.4443,-10.38484 -20.35094,-17.82179c-10.82762,-7.50506 -21.00321,-14.94201 -22.46578,-17.22222c-1.47076,-2.87924 -2.20205,-2.87924 -2.20205,0.53654c0,3.48463 -3.57742,4.02061 -15.22353,2.27713c-7.97354,-1.13883 -14.48427,-1.13883 -14.48427,-0.53346c0,1.13865 2.92536,8.03906 5.85891,14.94201c5.04818,11.45811 7.24202,13.80426 23.19705,18.35852c10.09612,2.88232 26.05071,9.78255 36.2263,14.94201c9.4443,5.22866 21.00298,9.24619 25.3991,9.24619l0.00003,0zm-113.15489,19.49971c2.93334,0 7.24999,-1.13829 10.17536,-2.88178c5.04818,-4.01807 0.73947,-4.01807 -8.70483,0c-4.31666,1.74349 -5.04795,2.28003 -1.47055,2.88178l0.00002,0zm-7.97354,-14.34026c7.24225,-2.34233 30.44705,-4.62292 51.52949,-4.62292c39.80392,-0.53654 47.7852,-2.27659 31.83017,-5.76157c-5.04773,-1.13829 -16.60664,-4.02117 -26.05071,-6.90041c-16.68632,-5.15946 -50.7982,-3.41886 -54.37562,2.34324c-0.73926,1.14138 -4.39612,1.74349 -7.98128,1.14138c-7.24225,-1.74367 -14.49224,2.8796 -16.68632,12.06022c-2.93334,7.43641 2.19408,8.04178 21.73427,1.74004l0,0.00003zm-57.96077,13.20197c1.46279,4.62328 8.71278,5.15946 14.49224,1.13829c3.57718,-2.27695 3.57718,-3.41524 0,-6.89987c-2.93334,-3.41942 -5.04795,-3.41942 -9.44407,-0.53654c-2.93334,1.67538 -5.04818,4.55461 -5.04818,6.29812zm-23.19705,40.20402c2.84613,0 4.30892,1.74095 2.84613,5.15982c-0.65205,2.34578 -2.84613,4.62292 -4.31666,4.62292c-2.19408,0 -3.57742,-2.27713 -3.57742,-4.62292c0,-2.81367 2.11463,-5.15982 5.04795,-5.15982z" id="svg_5"/>
	</g>

</svg>
