<?xml version="1.0" encoding="utf-8"?>
<!-- Generator: Adobe Illustrator 21.0.0, SVG Export Plug-In . SVG Version: 6.00 Build 0)
https://c.runoob.com/more/svgeditor/ -->
<svg width="800" height="600" xmlns="http://www.w3.org/2000/svg">

<g>
	<title>Layer 1</title>
	<path stroke="#000" id="svg_5" d="m237.06362,205.74506c-1.73154,0 -2.62156,-1.55983 -2.62156,-3.43034c0,-1.55946 0.44494,-3.07353 1.73154,-3.07353c0.89001,0 2.22981,1.51406 2.67475,3.07353c0.89001,2.27055 0,3.43034 -1.78474,3.43034zm295.98924,89.00174c3.96149,0 4.85137,0.40004 2.62156,3.07316c-1.28661,1.87051 -3.96135,3.42998 -5.24796,3.42998c-1.33966,0 -2.67475,-1.55946 -2.67475,-3.42998c0,-1.9164 1.78487,-3.07316 5.30115,-3.07316zm-276.57421,-108.86918c-3.96135,-0.75685 -4.40643,-4.5894 0,-5.74653c2.22968,-0.35633 3.51642,0.75673 3.51642,3.07353c0,1.91615 -1.28674,3.02969 -3.51642,2.673zm-49.37917,121.07333c5.30115,-1.11366 5.30115,-1.9141 3.51642,-4.54364c-1.33509,-1.9141 -1.78002,-4.23066 -0.89001,-4.98763c0.44494,-1.15918 2.67475,0 3.96135,2.27079c1.78474,3.07353 3.11969,3.47598 6.6361,1.55946c2.18147,-1.15701 3.96135,-1.91591 3.96135,-0.75673c0,0.75673 1.3398,0 3.07134,-1.55946c2.67488,-2.27079 3.11982,-7.26047 0.44507,-9.93372c-2.17662,-2.27079 -13.22386,-1.51382 -16.2952,1.15701c-1.78002,1.91652 -3.11982,1.51624 -4.85137,-1.91374c-2.67475,-5.70318 -2.67475,-6.50386 3.51628,-6.86019c5.30115,0 5.30115,0 0.89001,-2.31656c-2.22496,-1.11366 -4.40629,-3.42998 -4.40629,-4.94404c0,-3.83231 6.14268,-6.1031 8.81743,-3.42985c0.89001,1.11342 2.62169,2.27079 4.40643,2.27079c3.51642,0 20.3049,-12.9616 20.3049,-15.63485c0,-1.15906 1.73639,-1.91579 3.51642,-1.15906c2.18133,0.40233 6.14282,-0.75673 10.15737,-2.67325c5.6929,-3.07329 5.6929,-3.42998 2.62156,-8.4176c-2.17662,-3.42998 -4.85137,-4.5894 -11.04253,-4.5894c-7.0327,0 -8.81743,0.75709 -10.99405,5.34649c-0.89486,3.07316 -3.56947,5.34408 -5.30115,5.34408c-3.07134,0 -3.96135,-3.42792 -0.89001,-5.34408c1.33495,-0.75709 2.22496,-3.42998 2.22496,-6.10322c0,-4.18719 -0.89001,-4.94404 -6.6361,-3.83026c-5.74609,0.75673 -5.74609,0.40004 -4.40643,-5.34673c0.89001,-3.42985 2.17662,-6.50314 3.07148,-6.85983c0.89001,-0.40004 1.77989,-3.83026 1.77989,-7.26023c0,-6.86055 2.6264,-8.01756 7.48262,-3.07353c2.22483,2.67313 3.56476,3.07353 4.40629,0.75673c0.89001,-1.51382 4.0097,-1.87051 8.86591,-1.11378c6.58776,1.51406 7.0327,1.11378 6.14268,-3.42998c-0.44494,-2.67288 -0.89473,-5.74641 -1.33966,-6.50314c0,-1.15737 -2.17662,-2.67325 -4.80302,-3.83062c-5.30115,-1.91579 -6.6361,-6.50314 -1.78474,-6.50314c1.3398,0 2.62627,-0.75709 2.62627,-2.27321c0,-1.15737 2.67488,-1.9141 6.19116,-1.55971c4.85621,0.40233 7.47777,-1.11318 14.11387,-9.13038c4.85621,-5.74677 8.3725,-8.82006 8.81757,-7.26059c0.44494,1.9141 2.67475,3.02752 4.85608,3.02752c3.51642,0 3.96149,-1.11342 2.67488,-6.10105c-0.44979,-3.43022 -2.67488,-7.61692 -4.01455,-9.53344c-3.96149,-4.23235 -3.96149,-9.17639 0,-7.66293c3.11969,1.51624 12.82713,-2.67083 12.82713,-5.34396c0,-1.15918 1.29145,-1.91615 3.07134,-1.91615c1.78487,0 2.6264,2.31643 2.6264,5.34637c0,3.83026 0.89001,5.34432 3.11982,4.23054c1.73154,-0.80056 3.07148,-3.07353 3.07148,-4.58723c0,-4.58964 14.11374,-12.60697 17.63002,-10.33412c1.33993,0.75733 2.67475,0 3.12481,-2.67288c1.28647,-5.34637 9.25752,-9.53344 12.77381,-6.86019c1.78487,1.11342 3.51655,0.75709 3.96634,-0.40004c0.88988,-1.51612 4.40629,-2.67325 8.36765,-3.03018c3.96135,-0.40004 9.26251,-1.91615 11.49232,-3.47562c8.36765,-4.94404 16.74028,-4.58735 20.25656,0.75939c2.22981,3.83001 3.11969,3.83001 3.11969,1.15677c0,-3.43022 1.73653,-3.83026 12.33398,-2.67288c16.78862,1.51612 19.41503,1.51612 25.60619,-0.4004c3.96135,-1.11366 5.30102,-0.75697 5.30102,2.31619c0,1.91652 1.28674,3.43034 3.07148,3.43034c1.33495,0 2.62156,-1.11378 2.62156,-2.27297c0,-3.07316 7.08602,-4.58723 13.27706,-3.07316c4.80302,1.51612 5.24796,1.91579 3.96135,12.2062c-0.44494,6.14681 0,10.33388 0.84167,10.33388c0.88988,0 1.78474,-2.67325 1.78474,-6.5035c0,-6.45991 4.85137,-9.13098 6.6361,-3.83038c0.44507,1.91422 1.73154,1.15713 2.62156,-1.87039c2.22995,-8.01962 7.08602,-3.83267 5.74609,4.94404c-1.33482,7.26023 -1.33482,7.26023 2.62654,4.58699c2.22968,-1.15713 3.96122,-4.1867 3.96122,-6.10105c0,-1.91628 1.33993,-4.18912 3.11996,-4.9898c3.51615,-1.51346 7.48248,4.2309 6.19103,8.41966c-0.44494,1.91446 -0.44494,3.43022 0.84153,3.43022c0.89486,0 1.78487,-1.11342 1.78487,-1.91615c0,-1.11366 2.18133,-1.51406 4.85608,-0.75673c5.74138,1.15713 6.58291,4.2303 1.73168,6.10081c-1.28661,0.80273 -2.6264,2.67325 -2.6264,4.23295c0,2.67325 0.89473,2.67325 5.74609,0c7.92271,-4.58723 11.43899,-4.23295 12.77892,0.75673c0.88988,2.67325 2.62627,3.83243 4.40629,2.67325c1.78474,-0.40028 5.74609,1.15918 8.81757,3.83026c2.67475,2.27284 6.6361,4.18707 8.42084,4.18707c2.6264,0 2.6264,1.9164 1.73154,7.26253c-0.88988,5.74677 -0.88988,6.5035 1.78487,4.18731c3.51628,-3.78703 4.85137,-3.43058 6.14282,1.91374c0.44494,2.67325 3.56463,4.5894 7.08104,5.74653c3.96135,0.75939 6.14282,2.67313 6.14282,4.94609c0,2.31643 1.33482,4.98763 2.67475,6.50374c3.51642,2.67288 2.62156,10.69021 -1.33993,13.36333c-1.33482,0.80068 -3.07121,0.4004 -3.51628,-0.75673c-0.88988,-1.15942 -3.96135,-1.15942 -9.70758,0c-9.26251,2.67083 -10.99405,3.42998 -8.81743,6.90354c1.3398,2.27079 16.74499,1.51406 25.16112,-1.15918c2.6264,-1.15725 3.51642,0 3.51642,5.34649c0,3.83001 -0.89001,6.86019 -2.22496,6.86019c-0.89486,0 -1.73639,1.15701 -1.73639,3.07316c0,4.58916 2.18147,4.1867 7.92756,-1.15737c3.06649,-3.07316 4.85123,-3.83231 7.0327,-1.91579c2.22496,1.91579 2.67475,1.91579 2.67475,-1.15737c0,-1.87281 -0.89486,-3.42998 -2.22968,-3.42998c-0.84167,0 -1.73653,-1.51612 -1.73653,-3.03018c0,-1.91591 1.29145,-3.42998 3.07134,-3.42998c1.3398,0 3.11982,0.75673 3.11982,1.87051c0,1.15967 1.73639,2.67313 3.9662,3.07353c3.06663,1.15942 3.96135,2.67325 3.51628,7.26047c-0.89473,8.77611 0.89015,11.44959 7.47777,9.93577c3.11982,-0.75939 4.85123,0 3.51642,1.51382c-0.39659,0.75673 0,2.67325 0.89001,3.47332c3.56947,2.27309 2.22968,7.61753 -1.73168,7.61753c-4.85608,0 -6.19116,1.91579 -3.56463,5.34613c1.77989,1.91615 3.11969,2.27079 4.85123,0.75697c4.01455,-3.83026 4.85621,-0.75697 5.30115,14.52312c0,7.66027 0.89001,13.76373 1.78002,13.76373c2.18133,0 1.3398,8.41966 -1.78002,11.84963c-1.73639,1.9141 -1.73639,3.78449 -0.44494,5.34396c3.11969,3.43034 0,13.36406 -3.96634,13.36406c-3.51615,0 -10.15238,7.26023 -10.15238,10.69045c0,4.18936 -5.6929,0 -7.0327,-4.58735c-1.33495,-4.18695 -1.33495,-4.18695 -2.22981,-1.15918c-0.84153,3.47574 3.9662,14.16619 7.97604,17.19576c2.62627,2.3168 -2.22981,6.14681 -5.74623,4.58735c-1.78487,-0.75673 -2.6264,-3.02752 -2.6264,-5.34408c0,-6.50314 -11.04253,-22.89701 -19.41503,-29.04358c-4.45464,-3.03018 -8.41613,-6.46015 -8.41613,-7.61716c0,-2.31656 -14.11859,-9.53344 -22.0413,-11.84987c-4.41128,-1.15918 -5.74623,-0.75685 -5.74623,2.31643c0,2.27079 -0.84153,3.02752 -2.6264,2.27079c-3.96135,-1.51406 -5.74609,1.91652 -2.22968,5.34649c4.85608,4.18695 4.01455,9.17639 -1.28661,7.26023c-3.56476,-1.15713 -4.00983,-0.75709 -2.67475,5.74665c0.44494,3.78667 1.3398,8.77611 1.3398,11.0469c0,2.31656 0.88988,3.83062 1.77989,3.83062c1.29159,0 1.73639,-0.75709 0.84167,-1.9141c-0.44494,-1.15942 0.44992,-2.27297 2.22968,-2.27297c1.33993,0 2.6264,1.51587 2.6264,3.02969c0,1.55971 -1.73626,3.07316 -4.85608,2.67349c-2.62156,0 -4.85137,-1.11378 -4.85137,-1.87075c0,-3.47598 -11.88891,-27.12972 -15.40519,-30.60329c-3.96149,-3.78703 -1.33509,-4.94404 -32.63902,13.00688c-4.85123,2.67325 -10.15238,8.41966 -12.82713,12.60697c-2.18147,4.1867 -5.69775,8.41966 -7.47777,9.17639c-1.78474,0.75709 -8.3725,6.86019 -14.11872,13.36369c-24.71618,28.64113 -20.70163,32.07135 -18.96995,90.56145c7.48248,44.32138 7.48248,44.32138 7.48248,44.32138c-17.635,0 -17.635,0 -17.635,0c-14.55881,0 -14.55881,0 -14.55881,0c1.33495,-40.8937 1.33495,-40.8937 1.33495,-40.8937c0.88988,-3.42768 1.3398,-10.33352 1.78487,-14.16414c0.44494,-2.27284 -12.38233,-12.20656 -11.93726,-14.47711c0,-1.91615 13.27221,3.43034 13.27221,1.51382c2.18133,-27.8844 0,-50.06815 -5.74623,-61.87431c-1.33495,-7.26059 -12.3822,-30.60099 -14.11374,-30.60099c-0.44507,0 -3.56476,-2.27284 -6.6361,-4.94609c-5.30129,-4.98739 -7.47777,-5.34432 -37.05016,-6.86019c-31.74888,-1.55741 -31.74888,-1.55741 -31.74888,-1.55741c-7.52612,5.34432 -7.52612,5.34432 -7.52612,5.34432c-4.40629,3.47562 -8.81743,5.74653 -10.10417,5.74653c-2.67475,0 -13.72199,8.01926 -18.52501,12.60624c-0.44494,0 -0.88988,-0.39968 -0.88988,-0.75673c-0.44507,0 -0.44507,0 -0.44507,-0.40028c-0.44494,-1.11342 -0.89473,-2.27284 -1.78474,-3.42998c2.67475,-1.91615 4.85608,-3.07534 5.74609,-2.67288c1.33495,0.75673 2.6264,0 2.6264,-1.91652c0,-1.9141 -2.6264,-2.67313 -9.6591,-1.9141c-8.42098,1.15737 -10.60231,1.55741 -11.93726,6.10117c-2.18147,2.31643 -2.6264,5.74665 -1.33495,8.4199c-0.44992,3.42998 -0.44992,5.74641 0,5.74641c0.44494,0 0.88988,-0.75673 2.22496,-1.55946c0,0.4004 0.44494,0.80273 0.89473,1.15918c-4.41114,1.15713 -6.64095,4.58735 -6.19116,8.01732c-2.22968,1.55946 -4.41114,2.31643 -7.08576,3.47357c0,0 0,-0.40004 -0.39673,-0.40004c1.73639,-3.42998 2.6264,-7.26059 3.07134,-13.007c0.89486,-6.46015 0.44494,-10.69045 -0.88988,-10.69045c-0.89001,0 -1.78474,1.55946 -1.78474,3.82989c0.4448,1.91652 -0.39673,3.83062 -2.17675,4.18731c-1.3398,0.40004 -2.22968,-0.35669 -2.22968,-2.27079c0,-4.5894 -1.73168,-4.5894 -5.69788,-0.40233c-1.77989,1.55946 -5.29631,3.43022 -8.36765,4.23295c-4.01455,1.11342 -5.30115,0.35633 -7.08589,-3.83062c-1.33495,-3.42998 -2.22496,-7.26253 -1.33495,-8.77635c0.44494,-1.91615 0.44494,-3.47357 -1.28661,-3.47357c-4.85621,0 -1.3398,-6.10346 4.40629,-7.26265zm37.94004,-87.84256c-2.67475,-0.40004 -4.85621,-1.51382 -5.74609,-3.07329c-0.44507,-2.27284 -0.89001,-2.27284 -0.89001,0c0,1.55946 -1.78474,2.67325 -3.51642,3.07329c-3.11969,0 -3.11969,0.40028 0.44507,1.91652c2.17648,0.75673 4.40629,1.91374 4.85123,1.91374c0.39659,0 2.6264,-1.15701 4.85621,-1.91374c3.96135,-1.91652 3.96135,-1.91652 0,-1.91652zm349.77469,61.51762c0.84167,0.75709 1.73168,-0.40233 1.73168,-2.31643c0,-1.51587 -0.89001,-3.02994 -1.73168,-3.02994c-1.33966,0 -2.22968,0.75697 -2.22968,1.87051c0,1.15942 0.89001,2.71889 2.22968,3.47586zm-3.11969,3.43022c-0.44494,-1.15942 -2.6264,-2.67313 -4.41114,-2.67313c-1.28661,0 -2.17662,1.5137 -1.28661,2.67313c0.39659,1.15713 2.18133,1.91422 3.96135,1.91422c1.73639,0 2.18133,-0.75709 1.73639,-1.91422zm-3.96135,17.19371c1.33495,0 3.11969,-0.40004 3.11969,-0.75673c0,-0.80273 -1.78474,-1.55946 -3.11969,-2.31656c-1.73639,-0.75697 -3.07148,-0.35669 -3.07148,0.75709c0,1.15918 1.33509,2.31619 3.07148,2.31619zm3.51642,-36.30381c1.77989,-0.75733 2.67461,-1.9164 2.22496,-3.03018c-1.33509,-2.71647 -8.81286,-2.71647 -8.81286,0c0,3.03018 2.62169,4.18731 6.58789,3.03018zm-24.22276,-28.64379c-2.22981,1.15942 -3.56476,3.43022 -3.11996,4.5894c2.22981,3.02788 4.85635,2.27079 7.08118,-2.67325c2.18147,-4.5894 1.29145,-5.34613 -3.96122,-1.91615zm-8.42098,58.8445c11.49218,10.29005 11.93726,10.69045 11.93726,7.26047c0,-1.9141 -0.89001,-3.47357 -2.22981,-3.47357c-1.28647,0 -3.51628,-1.91652 -4.85123,-4.18695c-1.28674,-2.27321 -3.96135,-4.58976 -6.14282,-4.58976c-4.0097,0 -4.0097,0.40245 1.28661,4.9898zm-9.25779,-17.99669c2.67004,0 3.96149,-0.75673 2.2251,-1.11354c-1.33495,-0.75697 -3.51642,-0.75697 -4.85137,0c-1.33993,0.35681 0,1.11354 2.62627,1.11354zm-12.77879,-51.93866c1.33495,1.15737 5.29631,2.67119 8.81259,3.43034c6.1913,1.15701 6.63624,1.15701 3.11982,-1.91615c-4.0097,-3.78703 -15.00375,-4.94404 -11.93241,-1.51418zm-26.89765,-63.38777c-1.33495,1.11342 -1.77989,3.42998 -1.33495,4.94368c0.89001,3.07353 3.51642,0.4004 3.51642,-4.18695c0,-2.31656 -0.44507,-2.67325 -2.18147,-0.75673zm13.22386,82.49824c3.51642,1.91386 4.85621,1.91386 6.64109,-0.75914c3.51628,-4.18719 1.28647,-6.10105 -5.30129,-3.42985c-5.30115,1.87256 -5.30115,1.87256 -1.3398,4.189zm-8.81259,-19.11047c6.6361,-4.18658 6.6361,-4.18658 1.33495,-4.18658c-3.56476,0 -6.19116,1.51346 -7.52612,4.18658c-0.84167,2.67119 -1.73639,4.18731 -1.29145,4.18731c0,0 3.51642,-2.27309 7.48262,-4.18731zm-9.70758,61.91803c3.06649,4.18731 8.36778,4.18731 6.6361,-0.40028c-0.44494,-1.51587 -0.89473,-3.42998 -0.89473,-3.83243c0,-0.35669 -1.78002,-0.35669 -3.96135,0.40245c-3.56476,0.75697 -3.56476,1.9141 -1.78002,3.83026zm-13.67365,-15.68013c3.51628,4.18719 5.30115,4.58723 9.26251,1.51406c2.6264,-1.9141 2.6264,-1.9141 0,-2.27079c-1.33495,0 -4.85137,-0.40245 -7.92271,-1.15942c-4.41114,-1.51382 -4.41114,-1.51382 -1.3398,1.91615zm-0.44494,-41.65055c2.22968,0 4.85608,-6.1031 3.51642,-8.0172c-1.73168,-1.91615 -5.29644,1.15701 -5.29644,4.58723c0,1.91628 0.89001,3.42998 1.78002,3.42998zm-21.59164,25.9703c-2.67475,1.55946 -2.22968,1.91652 1.28674,1.91652c2.22968,0 4.85123,-0.75939 5.74609,-1.91652c1.33482,-3.02957 -3.07148,-3.02957 -7.03283,0zm0.44507,33.63117c0.39659,0.40245 1.73154,-0.40028 3.07134,-2.27079c1.33482,-1.55946 5.29644,-3.47562 8.36765,-4.23271c3.96135,-1.15737 5.74623,-3.02776 5.74623,-5.74665c0,-6.4575 -6.19116,-4.54376 -12.77906,3.83255c-2.67461,4.23066 -4.85123,7.66087 -4.40616,8.4176zm-4.85608,-17.59423c3.96122,-4.1867 3.96122,-4.94609 0.8414,-6.10322c-3.51628,-1.51406 -6.13784,1.91652 -6.13784,8.01732c-0.44979,4.5894 -0.44979,4.5894 5.29644,-1.9141zm-7.08118,-45.0804c0.44494,3.07316 1.33495,2.67313 3.96122,-3.02994c3.11996,-6.10117 3.11996,-6.9039 0.44507,-6.9039c-1.73154,0 -3.51642,1.15737 -3.96135,3.07365c-0.89001,1.5137 -0.89001,4.98968 -0.44494,6.86019zm-2.18147,-31.31474c0,1.55741 0.84153,5.34432 1.73639,8.01732c1.33495,5.34637 1.33495,5.34637 2.67475,0.75697c1.73154,-4.58699 0,-11.44718 -2.67475,-11.44718c-1.29145,0 -1.73639,1.15677 -1.73639,2.67288zm-30.9025,12.60455c-2.18133,2.67325 -2.18133,5.34649 -0.44979,13.36369c0.89486,5.74653 3.12467,11.49318 4.41114,12.60697c2.22981,1.91615 2.67475,0 3.11969,-11.84782c0,-14.47748 -2.22968,-19.06652 -7.08104,-14.12284zm3.96135,40.49342c0.44507,0.75709 1.33495,-0.75697 0.89001,-3.02982c0,-2.31656 -0.44494,-2.67325 -1.33495,-1.15713c-0.39673,1.51382 -0.39673,3.42998 0.44494,4.18695zm15.89861,-35.90402c-0.44494,0.75709 -0.44494,6.10346 0.89001,11.84782c1.3398,9.93577 1.73639,10.33581 2.18147,3.07534c0.44494,-11.84987 -0.44507,-17.59628 -3.07148,-14.92316zm-15.0086,107.75552c2.67475,-4.5894 7.08118,-12.25027 10.15252,-16.83931c3.51628,-4.9444 5.74609,-11.44754 6.6361,-17.95104c1.29145,-10.29041 1.29145,-10.29041 1.29145,-10.29041c-5.30115,5.70306 -5.30115,5.70306 -5.30115,5.70306c-2.6264,3.07353 -4.40643,6.5035 -4.40643,7.66087c0,3.02969 -8.3725,22.1398 -10.9989,25.57002c-1.33495,1.91374 -3.56476,6.14681 -3.96135,9.17639c-2.22981,8.77454 1.73639,7.26047 6.58776,-3.02957zm-31.30394,39.33399c1.3398,7.61692 1.3398,7.61692 5.74623,-8.77647c2.6264,-8.82018 6.58776,-22.94036 9.26251,-31.71695c3.51628,-11.09085 4.85608,-20.26724 4.85608,-33.23053c0,-16.83762 -0.44979,-17.19431 -3.96607,-15.2778c-7.97119,4.94392 -12.38233,18.70765 -14.16235,45.43468c-0.84153,13.76639 -1.73639,27.53012 -2.62627,30.56006c-0.44507,3.07329 0,8.81994 0.88988,13.007zm0.89486,-97.77845c1.73154,3.78691 3.51642,6.86019 3.51642,6.86019c0.44494,0 2.62142,-2.31656 4.40629,-5.34613c2.22968,-2.67107 5.74609,-5.74436 7.08118,-6.85814c5.25267,-3.47562 6.58762,-14.16607 2.18133,-21.42654c-3.51642,-6.5035 -13.22386,-13.76615 -15.00873,-11.44959c-0.88988,0.75697 -2.17648,8.01962 -3.07134,16.43722c-1.77989,12.6066 -1.77989,16.43891 0.89486,21.78299zm-2.67475,-87.48768c0.89001,0.75914 1.77989,0.35669 1.77989,-0.80032c0,-1.51612 -0.88988,-3.03018 -1.77989,-3.78703c-1.3398,-0.80261 -2.18147,-0.40028 -2.18147,1.11378c0,1.15713 0.84167,2.67325 2.18147,3.47357zm-142.89425,102.72189c6.14268,0.40233 6.14268,0.40233 6.14268,0.40233c6.19116,0 12.38233,-4.94609 12.38233,-9.17639c0,-2.67325 -0.44494,-2.67325 -18.52501,8.77405zm2.6264,-10.69057c0,1.15979 0.89001,2.31656 2.22981,2.31656c2.17662,0 8.36765,-6.86019 7.0327,-8.0172c-1.3398,-1.55946 -9.26251,3.42985 -9.26251,5.70065zm4.85608,-26.32663c6.63624,7.61897 9.70758,8.37595 13.22386,3.42985c3.56476,-4.58699 0.44507,-7.66051 -10.15723,-8.77429c-8.81272,-1.15942 -8.81272,-1.15942 -3.06663,5.34444zm-4.85608,-21.42461c0,0.80032 3.11969,2.67083 6.6361,4.2303c16.29534,7.26059 19.41503,7.26059 18.96995,0.35705c0,-4.18731 -6.6361,-13.36394 -9.26251,-13.36394c-3.11969,0 -16.34355,7.26047 -16.34355,8.77659zm23.82617,54.2551c4.85137,0 5.29631,-1.15737 1.33495,-3.02788c-1.78474,-0.40233 -3.51642,0 -3.96135,1.11378c-0.89486,1.15677 0.44494,1.9141 2.6264,1.9141zm3.51642,-89.75883c-3.07148,-1.9164 -7.03768,-2.67313 -8.81757,-1.9164c-3.07134,1.51612 -2.6264,1.9164 1.77989,3.07316c2.18147,0.75939 6.64109,1.51624 8.81757,1.87293c2.6264,0 2.6264,-0.75914 -1.77989,-3.02969zm-0.39659,13.76373c2.62142,0 3.07134,-0.40028 1.28661,-1.55741c-1.28661,-0.35645 -3.07148,-0.35645 -3.96149,0.4004c-0.44494,0.75673 0.89001,1.51406 2.67488,1.15701zm2.62142,8.77671c-6.19103,0 -6.19103,0.35633 -2.62142,3.42985c4.40629,3.42998 5.6929,3.83001 7.47777,1.51382c3.07121,-3.02788 0.88988,-4.94368 -4.85635,-4.94368zm8.8177,-43.16461c-1.78487,-1.91615 -2.22981,1.51406 -1.33509,5.70101c0.44494,2.67325 2.22496,4.98944 3.11982,4.98944c1.73154,0 0.44494,-8.41966 -1.78474,-10.69045zm14.11374,50.42448c-0.88988,0.35705 1.3398,2.67325 3.9662,4.58964c2.67475,1.9141 4.85123,2.67095 4.85123,1.51382c0,-2.67288 -7.47764,-7.66256 -8.81743,-6.10346zm-11.04253,2.67325c-3.96135,2.67349 -1.73154,9.53332 4.00983,10.69069c3.07134,0.75685 7.92756,3.83038 10.9989,6.85995c2.67475,3.07353 4.85123,4.23295 4.85123,3.07353c0,-3.83026 -17.63015,-22.18363 -19.85997,-20.62417zm18.08008,31.71731c-2.62627,-6.14911 -5.69775,-9.17699 -11.44397,-11.09314c-4.40629,-1.51382 -8.81743,-2.31619 -10.15238,-1.91386c-1.3398,0.40004 3.96135,5.34408 11.49232,11.09061c14.11374,9.93372 14.11374,9.93372 10.10404,1.9164zm23.42473,-58.84474c-0.89001,0 -1.78487,1.51406 -1.78487,3.02788c0,1.91615 0.89486,3.07353 1.78487,3.07353c1.28661,0 2.18147,-1.15737 2.18147,-3.07353c0,-1.51382 -0.89486,-3.02788 -2.18147,-3.02788zm-4.0097,31.31474c0,2.67288 7.52612,0.75697 10.59746,-2.67325c4.40643,-5.74641 3.96135,-7.26047 -1.78474,-7.26047c-3.96135,0 -8.81272,5.34661 -8.81272,9.93372zm12.82727,-82.4986c-1.3398,4.94404 -2.22981,9.13098 -1.78474,9.53344c1.33966,1.51406 4.85621,-9.93348 4.85621,-14.52288c0,-1.9141 -1.33993,0.40245 -3.07148,4.98944zm22.93144,77.15211c-2.22981,0 -3.96149,0.75939 -3.96149,2.27284c0,1.15737 1.28661,1.91652 2.62156,1.91652c1.78474,0 3.51642,-0.75914 3.9662,-1.91652c0.89001,-1.51346 -0.44979,-2.27284 -2.62627,-2.27284zm-5.30129,71.80779c2.6264,6.90596 6.58776,13.36369 8.81757,14.92316c2.22981,1.15737 6.6361,6.50374 9.26251,11.84987c2.6264,5.34432 5.30115,9.53139 5.74623,9.53139c2.17648,0 -2.22981,-35.14499 -5.30115,-45.83749c-2.67488,-9.17433 -3.51655,-17.59423 -3.07148,-30.95793c0.39659,-9.93348 0,-18.71007 -0.88988,-19.46692c-0.44507,-0.75697 -3.51642,-0.75697 -6.19116,0c-4.85621,1.51382 -5.30115,2.67325 -5.30115,11.0929c0,6.45786 -0.89015,9.93372 -3.07148,11.44718c-6.19103,3.43034 -5.74609,22.89713 0,37.41784zm-12.77879,-51.18145c-0.89001,-5.74653 -1.77989,-6.5035 -6.6361,-6.5035c-5.74623,0 -5.74623,0.40028 -5.30115,8.4176c0,4.94609 0.89473,10.6925 1.33966,13.36357c0.44507,2.67325 2.18147,5.34613 3.96149,5.74653c3.51628,1.9164 7.47764,-11.44718 6.6361,-21.02421zm-6.6361,38.57485c-3.96149,-4.58735 -6.6361,-9.53139 -7.03283,-10.69045c0,-1.51382 -2.22968,-5.34408 -4.85137,-8.77429c-2.67475,-3.42998 -5.74609,-7.66269 -7.08589,-9.17675c-4.40629,-5.34613 -3.51642,-0.75673 1.3398,11.09085c3.07134,8.01926 8.36778,15.27985 14.55881,21.38295c11.44384,10.33376 12.77892,8.41797 3.07148,-3.83231zm-7.03283,18.75341c4.80302,0 4.40643,-0.40004 -2.22968,-6.50314c-4.40643,-3.83062 -7.47777,-8.01756 -7.47777,-9.93384c0,-1.5137 -5.74623,-6.90378 -12.3822,-11.84782c-6.58789,-4.98932 -12.77906,-9.93336 -13.66894,-11.44923c-0.89486,-1.9141 -1.3398,-1.9141 -1.3398,0.35669c0,2.31656 -2.17662,2.67288 -9.26251,1.51382c-4.85137,-0.75709 -8.81272,-0.75709 -8.81272,-0.35464c0,0.75697 1.77989,5.34432 3.56476,9.93336c3.07148,7.61728 4.40629,9.17699 14.11387,12.20463c6.14282,1.91615 15.85013,6.50338 22.0413,9.93336c5.74623,3.47598 12.77892,6.14681 15.45367,6.14681zm-68.84725,12.96329c1.78474,0 4.41114,-0.75673 6.19103,-1.91579c3.07148,-2.67119 0.44992,-2.67119 -5.29631,0c-2.6264,1.15906 -3.07134,1.51575 -0.89473,1.91579zm-4.85137,-9.53332c4.40643,-1.55717 18.52501,-3.07329 31.35228,-3.07329c24.21805,-0.35669 29.07413,-1.51346 19.36655,-3.83026c-3.07121,-0.75673 -10.10404,-2.67325 -15.85013,-4.58735c-10.15252,-3.42998 -30.90734,-2.27284 -33.08396,1.55777c-0.44979,0.75878 -2.67475,1.15906 -4.85608,0.75878c-4.40643,-1.15918 -8.81757,1.91434 -10.15252,8.01756c-1.78474,4.94368 1.33495,5.34613 13.22386,1.15677zm-35.26529,8.77659c0.89001,3.07353 5.30115,3.42998 8.81757,0.75673c2.17648,-1.5137 2.17648,-2.27043 0,-4.58699c-1.78474,-2.27321 -3.07134,-2.27321 -5.74609,-0.35669c-1.78474,1.11378 -3.07148,3.02788 -3.07148,4.18695zm-14.11387,26.72739c1.73168,0 2.62169,1.15737 1.73168,3.43022c-0.39673,1.55946 -1.73168,3.07329 -2.6264,3.07329c-1.33495,0 -2.17662,-1.51382 -2.17662,-3.07329c0,-1.87051 1.28661,-3.43022 3.07134,-3.43022z" fill="#535F75"/>
</g>
</svg>
